<svg width="377" height="70" viewBox="0 0 377 70" fill="none" xmlns="http://www.w3.org/2000/svg">
<g clip-path="url(#clip0)">
<rect width="377" height="70" fill="#042354"/>
<path d="M220.5 36.0026C220.5 14.1884 238.188 -3.50005 260.003 -3.50005C281.817 -3.50005 299.505 14.1884 299.505 36.0026C299.505 57.8169 281.817 75.5053 260.003 75.5053C238.177 75.5053 220.5 57.8169 220.5 36.0026Z" stroke="#FF9929"/>
<path d="M379.489 -3.48879L379.489 75.5054L300.495 75.5054L300.495 -3.4888L379.489 -3.48879Z" stroke="#FF9929"/>
<path d="M362.192 69.9665L377.01 69.9665L377.01 -54.4178L362.192 -54.4178C327.838 -54.4178 300 -26.5688 300 7.77435C300 42.1282 327.838 69.9665 362.192 69.9665Z" fill="#FF9929"/>
</g>
<defs>
<clipPath id="clip0">
<rect width="377" height="70" fill="white"/>
</clipPath>
</defs>
</svg>
