<svg width="377" height="70" viewBox="0 0 377 70" fill="none" xmlns="http://www.w3.org/2000/svg">
<g clip-path="url(#clip0)">
<rect width="377" height="70" fill="#042354"/>
<path d="M67.0042 24.0021C67.0042 40.0176 54.0176 53.0042 38.0021 53.0042C21.9866 53.0042 9 40.0176 9 24.0021C9 7.98655 21.9866 -5 38.0021 -5C54.0176 -5 67.0042 7.98655 67.0042 24.0021Z" stroke="#042354" stroke-opacity="0.4" stroke-width="2"/>
<path d="M127 83.9979C127 100.013 114.014 113 97.9984 113C81.9828 113 68.9963 100.013 68.9963 83.9979C68.9963 67.9824 81.9828 54.9958 97.9984 54.9958C114.022 54.9958 127 67.9822 127 83.9979Z" stroke="#042354" stroke-opacity="0.4" stroke-width="2"/>
<path d="M69.0034 52.9958V-5H126.999V52.9958H69.0034Z" stroke="#042354" stroke-opacity="0.4" stroke-width="2"/>
<path d="M9.00824 112.992V54.9958H67.0041V112.992H9.00824Z" stroke="#042354" stroke-opacity="0.4" stroke-width="2"/>
<path d="M270.352 74.0547L195 74.0547L195 3.46931C236.421 4.05921 269.765 35.4021 270.352 74.0547Z" stroke="#2841DD" stroke-width="2"/>
<path d="M271.602 59.0128C271.602 82.734 290.837 101.97 314.559 101.97H324.793V16.0559H314.559C290.837 16.0559 271.602 35.2842 271.602 59.0128Z" fill="#2841DD"/>
<path d="M335.043 -4.37695H324.808V81.5368H335.043C358.772 81.5368 378 62.3012 378 38.5799C378 14.8513 358.772 -4.37695 335.043 -4.37695Z" fill="#2841DD"/>
</g>
<defs>
<clipPath id="clip0">
<rect width="377" height="70" fill="white"/>
</clipPath>
</defs>
</svg>
