<svg width="377" height="70" viewBox="0 0 377 70" fill="none" xmlns="http://www.w3.org/2000/svg">
<g clip-path="url(#clip0)">
<rect width="377" height="70" fill="#042354"/>
<path d="M225.995 109.997C225.995 88.4591 243.459 70.9945 264.997 70.9945C286.535 70.9945 304 88.4591 304 109.997C304 131.535 286.535 149 264.997 149C243.459 149 225.995 131.535 225.995 109.997Z" stroke="#2841DD" stroke-width="2"/>
<path d="M146 30.0026C146 8.46454 163.465 -9.00005 185.003 -9.00005C206.541 -9.00005 224.005 8.46455 224.005 30.0026C224.005 51.5407 206.541 69.0053 185.003 69.0053C163.454 69.0053 146 51.5409 146 30.0026Z" stroke="#2841DD" stroke-width="2"/>
<path d="M303.989 69.0054L225.995 69.0054L225.995 -8.9888L303.989 -8.98879L303.989 69.0054Z" stroke="#2841DD" stroke-width="2"/>
<path d="M368.192 92.3843L383.01 92.3843L383.01 -31.9999L368.192 -31.9999C333.838 -31.9999 306 -4.15096 306 30.1922C306 64.546 333.838 92.3843 368.192 92.3843Z" fill="#2841DD"/>
</g>
<defs>
<clipPath id="clip0">
<rect width="377" height="70" fill="white"/>
</clipPath>
</defs>
</svg>
